<svg id="图层_1" data-name="图层 1" xmlns="http://www.w3.org/2000/svg" viewBox="0 0 1050 347"><defs><style>.cls-1{fill:#ffffff;}.cls-2{fill:#ffffff;}.cls-3{fill:#ffffff;fill-rule:evenodd;}</style></defs><title>联信标志</title><path class="cls-1" d="M510.53,89.58c2.1,2.82,4.93,6.85,8.45,12.14a75.2,75.2,0,0,0,5.28,7.92L510.53,116h13.73A268.45,268.45,0,0,0,538,90.11l19,6.32Q551.17,107,545.37,116H558v19H534.29V148.7h26.93v19h-26.4q5.27,19,28,29-5.27,6.33-11.1,18.48-22.16-13.73-27.44-28-4.74,12.64-26.91,29c-.72-1.06-1.94-2.83-3.71-5.28q-5.8-7.39-8.45-10.56v15.31H468.29V198.33l-32.19,4.74L434,185.13a7.31,7.31,0,0,1,3.17-.53,15.2,15.2,0,0,1,3.17-.52V113.86H435V95.92h55.43v17.93h-5.28v63.36a21.54,21.54,0,0,1,6.86-1.06q-.53,7.92-.52,18a19.9,19.9,0,0,1-6.34,1.06v4.22q24.28-14.77,27.44-31.68H489.94v-19h24.28V135H492.58V116h13.19q-6.33-10.55-11.61-18.48Zm-52.79,35.9h10.56V113.88H457.74Zm0,26.92h10.56V140.78H457.74Zm0,29a82,82,0,0,1,10.56-1.58V167.71H457.74Z"/><path class="cls-1" d="M584.32,89.58l21.11,5.27a20,20,0,0,0-1.59,6.33,1.55,1.55,0,0,0-.53,1.06h30.62q-1.56-5.8-3.16-11.08l24.3-1.06a51.28,51.28,0,0,1,2.63,9,14.36,14.36,0,0,1,.53,3.17h33.25v18.48H601.72V107c-.69,1.77-1.57,4.22-2.63,7.39-1.39,3.53-2.45,6.17-3.16,7.92v93.45H575.87v-56q-4.24,6.88-9,14.26c-.37-2.82-.88-7.21-1.59-13.21-1.06-7-1.77-12.31-2.12-15.82q13.73-24.29,21.13-55.44M604.9,215.76V166.12H686.2v49.63H666.14v-6.34H625v6.34Zm1-90.28h79.19v15.84H605.94Zm0,20.59h79.19v15.84H605.94Zm19,47.51h41.19v-10H625Z"/><path class="cls-1" d="M747.3,168.77h20.6V174h51.2v15.31h-38q12.17,7.91,42.25,11.61a173.15,173.15,0,0,0-9.51,14.79q-31.67-6.87-45.92-17.43v18H747.3v-18q-14.23,9.52-45.39,18-2.12-3.7-6.86-11.62a20.36,20.36,0,0,0-2.65-3.7q28.52-3.68,41.7-11.61H696.63V174H747.3Zm62.83-20.07H776.86V154H815.4v13.2H728.31v3.69H708.25V137.62c-3.54,3.16-7.23,6.52-11.1,10-.71-2.82-1.59-7.56-2.63-14.26-.71-3.51-1.24-6.32-1.59-8.44a88,88,0,0,0,24.81-35.9l22.17,1.58A53.77,53.77,0,0,1,736.75,97a37,37,0,0,0-2.1,4.75h22.16L751,90.63l23.22-1.05L780,101.72h34.84v13.21h-38v5.27h33.27v11.61H776.86v5.28h33.27Zm-81.83-28.5h28v-5.28h-28Zm0,16.89h28v-5.28h-28Zm0,16.89h28V148.7h-28Z"/><path class="cls-1" d="M829,216.29v-122h117.2v122H924.56V211H850.65v5.28Zm64.93-100.84H914V125h7.91v18.47H914v27.45q1,19-16.91,19.54a161,161,0,0,1-16.36.52A147.9,147.9,0,0,0,876.52,174h10.55c4.93.34,7.23-1.76,6.88-6.33V152.92q-11.08,18.5-31.68,31.16-3.68-4.23-11.61-14.8v24.3h73.91V112.8H850.65v55.45q19.53-11.08,29-24.82H854.35V125h39.6Z"/><rect class="cls-2" x="440.74" y="236.36" width="10.68" height="41.86"/><path class="cls-2" d="M468,278.21V236.36h11.6l7.9,13.75c1.28,2.25,2.51,4.46,3.66,6.66s2.25,4.36,3.27,6.51c-.16-3.17-.26-6.14-.34-8.91s-.11-5.2-.11-7.3V236.36h10.33v41.86H492.76l-8.2-14.14c-1-1.67-2-3.54-3.16-5.62s-2.34-4.32-3.61-6.72c.22,2.73.36,5.26.45,7.62s.14,4.42.14,6.25v12.61Z"/><polygon class="cls-2" points="529.13 278.21 529.13 244.86 517.15 244.86 517.15 236.36 551.83 236.36 551.83 244.86 539.83 244.86 539.83 278.21 529.13 278.21"/><polygon class="cls-2" points="564.7 278.21 564.7 236.36 596.5 236.36 596.5 244.94 575.4 244.94 575.4 252.33 594.67 252.33 594.67 260.71 575.4 260.71 575.4 269.66 597.18 269.66 597.18 278.21 564.7 278.21"/><path class="cls-2" d="M611.66,278.21V236.36h20.05q7.93,0,11.71,2.85c2.51,1.89,3.77,4.83,3.77,8.8a11.07,11.07,0,0,1-1.61,6,12.24,12.24,0,0,1-5,4.22,7.52,7.52,0,0,1,3.89,2.85c.77,1.2,1.2,3.32,1.32,6.34.06.86.12,2,.18,3.44.12,3.38.69,5.34,1.73,5.85v1.45H636.47a19.73,19.73,0,0,1-.92-6.07c-.08-2.57-.16-4.2-.24-4.86a5,5,0,0,0-1.65-3.58,6.45,6.45,0,0,0-4.18-1.14h-7.15v15.65Zm10.67-23.92h8a7.72,7.72,0,0,0,4.77-1.2,4.57,4.57,0,0,0,1.51-3.8,4,4,0,0,0-1.47-3.43,7.51,7.51,0,0,0-4.52-1.12h-8.27Z"/><rect class="cls-2" x="661.19" y="258.55" width="14.55" height="8.44"/><path class="cls-2" d="M728,263.56c-.73,5-2.69,8.91-5.91,11.67s-7.4,4.16-12.53,4.16q-9.16,0-14.79-6t-5.64-15.78q0-10.16,5.74-16.22t15.32-6q7.63,0,12.43,4a15.54,15.54,0,0,1,5.5,10.94H718a7.67,7.67,0,0,0-2.81-4.54,8.89,8.89,0,0,0-5.4-1.51,8.34,8.34,0,0,0-7.11,3.55q-2.62,3.54-2.61,9.71t2.47,9.54a8.12,8.12,0,0,0,7,3.4,8.91,8.91,0,0,0,5.79-1.77,7.93,7.93,0,0,0,2.71-5.11Z"/><path class="cls-2" d="M742.27,278.21V236.36h20q8,0,11.73,2.85c2.51,1.89,3.77,4.83,3.77,8.8a11.07,11.07,0,0,1-1.61,6,12.24,12.24,0,0,1-5,4.22,7.52,7.52,0,0,1,3.89,2.85c.75,1.2,1.2,3.32,1.32,6.34.06.86.1,2,.16,3.44.14,3.38.71,5.34,1.73,5.85v1.45H767.08a19.63,19.63,0,0,1-.94-6.07c-.08-2.57-.14-4.2-.22-4.86a5.12,5.12,0,0,0-1.65-3.58,6.49,6.49,0,0,0-4.18-1.14h-7.15v15.65Zm10.67-23.92h8a7.65,7.65,0,0,0,4.75-1.2,4.52,4.52,0,0,0,1.53-3.8,4,4,0,0,0-1.49-3.43,7.43,7.43,0,0,0-4.52-1.12h-8.25Z"/><polygon class="cls-2" points="793.18 278.21 793.18 236.36 824.98 236.36 824.98 244.94 803.89 244.94 803.89 252.33 823.15 252.33 823.15 260.71 803.89 260.71 803.89 269.66 825.67 269.66 825.67 278.21 793.18 278.21"/><path class="cls-2" d="M840.2,278.21V236.36H858.1q9.28,0,14.24,5.42t5,15.56c0,7-1.73,12.22-5.15,15.68s-8.56,5.2-15.48,5.2ZM851,269.43h5.83c3.3,0,5.74-1,7.27-2.93s2.34-5,2.34-9.17-.79-7.25-2.34-9.19-4-2.92-7.27-2.92H851Z"/><rect class="cls-2" x="892.21" y="236.36" width="10.68" height="41.86"/><polygon class="cls-2" points="927.92 278.21 927.92 244.86 915.92 244.86 915.92 236.36 950.63 236.36 950.63 244.86 938.63 244.86 938.63 278.21 927.92 278.21"/><path class="cls-3" d="M208.47,199.43,232.69,214s18,11.07,13.84,28.36c0,0-35.3,56.72-106.55,36.66,0,0,17.3-.7,29.76-18.67Z"/><path class="cls-3" d="M306.53,197.7l24.22,14.51s18,11.08,13.85,28.38c0,0-35.29,56.73-106.55,36.66,0,0,17.3-.7,29.76-18.69Z"/><path class="cls-3" d="M227.67,170l-24.53-14S184.91,145.36,188.68,128c0,0,34-57.49,105.74-39,0,0-17.29,1.06-29.34,19.32Z"/><path class="cls-3" d="M130.81,170.72l-24.52-14s-18.24-10.67-14.45-28c0,0,34-57.49,105.72-39,0,0-17.29,1.07-29.32,19.32Z"/><path class="cls-3" d="M156.41,226.07,140.5,249.41s-12.07,17.31-29.11,12.19c0,0-54.6-38.49-30.48-108.48,0,0-.31,17.31,16.93,30.78Z"/><path class="cls-3" d="M280.94,141.66l15.94-23.3S309,101.05,326,106.22c0,0,54.52,38.59,30.28,108.54,0,0,.34-17.3-16.88-30.8Z"/><path class="cls-3" d="M174.07,201.7a2.12,2.12,0,0,1-2.92.58l-19.61-13.14a2.09,2.09,0,0,1-.57-2.91l13.12-19.6a2.08,2.08,0,0,1,2.91-.57l19.62,13.14a2.09,2.09,0,0,1,.59,2.89Z"/><path class="cls-3" d="M270.82,201.7a2.11,2.11,0,0,1-2.91.58l-19.62-13.14a2.09,2.09,0,0,1-.55-2.91l13.1-19.6a2.08,2.08,0,0,1,2.91-.57l19.64,13.14a2.08,2.08,0,0,1,.57,2.89Z"/></svg>