<svg xmlns="http://www.w3.org/2000/svg" id="图层_1" data-name="图层 1" viewBox="0 0 376 347"><defs><style>.cls-1{fill:#cf000e;fill-rule:evenodd}</style></defs><title>联信标志2</title><path d="M172.47 199.43L196.69 214s18 11.07 13.84 28.36c0 0-35.3 56.72-106.55 36.66 0 0 17.3-.7 29.76-18.67zM270.53 197.7l24.22 14.51s18 11.08 13.85 28.38c0 0-35.29 56.73-106.55 36.66 0 0 17.3-.7 29.76-18.69zM191.67 170l-24.53-14s-18.23-10.64-14.46-28c0 0 34-57.49 105.74-39 0 0-17.29 1.06-29.34 19.32zM94.81 170.72l-24.52-14s-18.24-10.67-14.45-28c0 0 34-57.49 105.72-39 0 0-17.29 1.07-29.32 19.32zM120.41 226.07l-15.91 23.34s-12.07 17.31-29.11 12.19c0 0-54.6-38.49-30.48-108.48 0 0-.31 17.31 16.93 30.78zM244.94 141.66l15.94-23.3S273 101.05 290 106.22c0 0 54.52 38.59 30.28 108.54 0 0 .34-17.3-16.88-30.8zM138.07 201.7a2.12 2.12 0 01-2.92.58l-19.61-13.14a2.09 2.09 0 01-.57-2.91l13.12-19.6a2.08 2.08 0 012.91-.57l19.62 13.14a2.09 2.09 0 01.59 2.89zM234.82 201.7a2.11 2.11 0 01-2.91.58l-19.62-13.14a2.09 2.09 0 01-.55-2.91l13.1-19.6a2.08 2.08 0 012.91-.57l19.64 13.14a2.08 2.08 0 01.57 2.89z" class="cls-1"/></svg>