<svg xmlns="http://www.w3.org/2000/svg" width="81" height="81" viewBox="0 0 81 81"><title>img_supporter_avatar</title><defs><linearGradient id="a" x1="100%" x2="0%" y1="0%" y2="108.736%"><stop offset="0%" stop-color="#6361FF"/><stop offset="100%" stop-color="#337AFF"/></linearGradient></defs><g fill="none" fill-rule="evenodd"><circle cx="40" cy="41" r="40" fill="url(#a)"/><path fill="#FFF" fill-rule="nonzero" d="M43.919 69.677a4.024 4.024 0 0 1-3.793 2.655c-2.232 0-4.035-1.779-4.035-3.973s1.803-3.973 4.035-3.973c1.607 0 2.98.93 3.634 2.267 10.19-1.76 17.355-9.2 19.009-21.866a2.92 2.92 0 0 1-.87-.378c-1.055 7.356-5.837 13.524-12.395 16.621 3.868-2.812 6.408-7.375 6.67-12.639.317-9.191-13.675-18.345-14.357-17.636-.822-.83-1.037 5.79-5.016 8.104-3.391 3.226-9.51.664-11.78 6.822-1.41 6.674 2.57 13.284 8.043 16.428-7.92-2.535-13.871-9.348-15.085-17.664-.458.286-1 .452-1.588.452h-.374C14.345 44.897 13 43.56 13 41.91v-5.172c0-1.41 1-2.59 2.345-2.903C18.156 21.869 28.198 13 40.126 13c11.957 0 22.017 8.915 24.8 20.918 1.196.396 2.074 1.502 2.074 2.82v5.19a2.977 2.977 0 0 1-1.084 2.26c-1.41 15.533-9.78 23.765-21.997 25.49zM40.019 16C29.448 16 20.546 23.874 18 34.501c.15.12.292.259.424.416 2.82-8.955 11.335-15.47 21.416-15.47 10.109 0 18.643 6.552 21.434 15.553.207-.268.443-.499.726-.684C59.397 23.781 50.533 16 40.019 16zM34 53.784c1.369.661 3.035 1.048 4.844 1.048 2.441 0 4.634-.712 6.156-1.832-.297 2.24-2.671 4-5.59 4-2.567 0-4.711-1.364-5.41-3.216z"/></g></svg>