<?xml version="1.0" encoding="UTF-8"?>
<svg width="48px" height="48px" viewBox="0 0 48 48" version="1.1" xmlns="http://www.w3.org/2000/svg" xmlns:xlink="http://www.w3.org/1999/xlink">
    <!-- Generator: Sketch 63.1 (92452) - https://sketch.com -->
    <title>ic_defaultavatar</title>
    <desc>Created with Sketch.</desc>
    <g id="ic_defaultavatar" stroke="none" stroke-width="1" fill="none" fill-rule="evenodd">
        <g id="编组-20">
            <circle id="椭圆形备份" fill="#FFFFFF" cx="24" cy="24" r="24"></circle>
            <g id="形状结合-2" transform="translate(6.657760, 7.000000)" fill="#DDDDDD">
                <path d="M11.0122283,22.3575622 C12.8856629,23.4037886 15.0443251,24 17.3422399,24 C19.5975062,24 21.7186408,23.4257142 23.5673839,22.4154025 C25.2160087,23.0896147 26.7510323,23.7614631 27.9070375,24 C30.4708807,24.5290384 32.8081631,23.7888808 34.3202222,25.3352325 C31.4384146,31.8473873 24.9201516,36.3910772 17.3406533,36.3910772 C9.72511374,36.3910772 3.180926,31.8040732 0.320222174,25.2422016 C1.83746675,23.8044378 3.81235,24.556497 6.2463839,24 C7.47131095,23.719943 9.198986,23.032269 11.0122283,22.3575622 Z M17.3422399,0 C22.8650874,0 27.3422399,4.4771525 27.3422399,10 C27.3422399,15.5228475 22.8650874,20 17.3422399,20 C11.8193924,20 7.34223994,15.5228475 7.34223994,10 C7.34223994,4.4771525 11.8193924,0 17.3422399,0 Z" id="形状结合"></path>
            </g>
        </g>
    </g>
</svg>