<?xml version="1.0" encoding="UTF-8"?>
<svg width="24px" height="24px" viewBox="0 0 24 24" version="1.1" xmlns="http://www.w3.org/2000/svg" xmlns:xlink="http://www.w3.org/1999/xlink">
    <!-- Generator: Sketch 63.1 (92452) - https://sketch.com -->
    <title>ic_im_document</title>
    <desc>Created with Sketch.</desc>
    <g id="ic_im_document" stroke="none" stroke-width="1" fill="none" fill-rule="evenodd">
        <g id="文件" fill="#000000" fill-rule="nonzero">
            <rect id="矩形" opacity="0" x="0" y="0" width="24" height="24"></rect>
            <path d="M20.8,5 L12.2933333,5 L8.84666667,2.15 C8.62666667,2.075 8.48,2 8.33333333,2 L3.2,2 C1.95333333,2 1,2.975 1,4.25 L1,20.75 C1,22.025 1.95333333,23 3.2,23 L20.8,23 C22.0466667,23 23,22.025 23,20.75 L23,7.25 C23,5.975 22.0466667,5 20.8,5 Z M21.5333333,20.75 C21.5333333,21.2 21.24,21.5 20.8,21.5 L3.2,21.5 C2.76,21.5 2.46666667,21.2 2.46666667,20.75 L2.46666667,11 L21.5333333,11 L21.5333333,20.75 Z M21.5333333,9.5 L2.46666667,9.5 L2.46666667,4.25 C2.46666667,3.8 2.76,3.5 3.2,3.5 L8.04,3.5 L11.4866667,6.35 C11.7066667,6.425 11.8533333,6.5 12,6.5 L20.8,6.5 C21.24,6.5 21.5333333,6.8 21.5333333,7.25 L21.5333333,9.5 Z" id="形状"></path>
        </g>
    </g>
</svg>