<svg xmlns="http://www.w3.org/2000/svg" width="16" height="16" viewBox="0 0 16 16"><title>ic_im_document_replace</title><path fill="#999" fill-rule="nonzero" d="M10.507 5.052l.014-.193.043-2.59a.277.277 0 0 1 .176-.252.264.264 0 0 1 .292.073l2.914 3.434c.06.082.07.192.028.285a.269.269 0 0 1-.232.158h-2.036a.445.445 0 0 1-.11.014H2.453a.45.45 0 0 1-.322-.137A.468.468 0 0 1 2 5.516c0-.256.203-.464.454-.464h8.053zm-5.076 3.98h8.108a.46.46 0 0 1 .454.465.46.46 0 0 1-.454.465H5.492l-.013.179-.043 2.59a.277.277 0 0 1-.176.252.264.264 0 0 1-.292-.073L2.054 9.475a.284.284 0 0 1-.028-.285.269.269 0 0 1 .232-.158h3.174z"/></svg>