<?xml version="1.0" encoding="UTF-8"?>
<svg width="16px" height="16px" viewBox="0 0 16 16" version="1.1" xmlns="http://www.w3.org/2000/svg" xmlns:xlink="http://www.w3.org/1999/xlink">
    <!-- Generator: Sketch 63.1 (92452) - https://sketch.com -->
    <title>ic_im_document_delete</title>
    <desc>Created with Sketch.</desc>
    <g id="ic_im_document_delete" stroke="none" stroke-width="1" fill="none" fill-rule="evenodd">
        <g id="删除-2" fill-rule="nonzero">
            <g id="删除">
                <rect id="矩形" fill="#000000" opacity="0" x="0" y="0" width="16" height="16"></rect>
                <path d="M4.64200391,5.379125 L4.64200391,12.43175 C4.64200391,12.7328984 4.84513672,12.8915352 5.1426875,12.8915352 L5.1426875,12.8915352 L10.6729648,12.8915352 C10.9703867,12.8915352 11.1691953,12.7328984 11.1691953,12.43175 L11.1691836,12.43175 L11.1691836,5.379125 L12.2775664,5.379125 L12.2775664,12.43175 C12.2775664,13.3347148 11.565582,13.9999297 10.6729531,13.9999297 L10.6729531,13.9999297 L5.14267578,13.9999297 C4.25016406,13.9999297 3.53360937,13.3347266 3.53360937,12.43175 L3.53360937,12.43175 L3.53360937,5.379125 L4.64200391,5.379125 Z M7.10509766,5.379125 L7.10509766,10.7979102 L6.11986719,10.7979102 L6.11986719,5.379125 L7.10509766,5.379125 Z M9.69133203,5.379125 L9.69133203,10.7979102 L8.70610156,10.7979102 L8.70610156,5.379125 L9.69133203,5.379125 Z M9.21399219,2.00007031 L9.21399219,3.08284766 L13.5459219,3.08284766 L13.5459219,4.16549609 L2.45408984,4.16549609 L2.45408984,3.08284766 L6.78614844,3.08284766 L6.78614844,2.00007031 L9.21399219,2.00007031 Z" id="形状结合" fill="#AAAAAA"></path>
            </g>
        </g>
    </g>
</svg>