<svg xmlns="http://www.w3.org/2000/svg" width="48" height="48" viewBox="0 0 48 48"><title>ic_defaultavatar</title><g fill="none" fill-rule="evenodd"><circle cx="24" cy="24" r="24" fill="#FFF"/><path fill="#DDD" d="M17.67 29.358A12.942 12.942 0 0 0 24 31c2.255 0 4.376-.574 6.225-1.585 1.649.675 3.184 1.346 4.34 1.585 2.564.529 4.9-.211 6.413 1.335-2.882 6.512-9.4 11.056-16.98 11.056-7.615 0-14.16-4.587-17.02-11.149 1.517-1.438 3.492-.686 5.926-1.242 1.225-.28 2.953-.968 4.766-1.642zM24 7c5.523 0 10 4.477 10 10s-4.477 10-10 10-10-4.477-10-10S18.477 7 24 7z"/></g></svg>