<svg xmlns="http://www.w3.org/2000/svg" width="24" height="24" viewBox="0 0 24 24"><title>ic_im_document</title><path fill="#AAA" fill-rule="nonzero" d="M24 19.111V6.157c0-.535-.039-1.035-.5-1.411-.417-.34-.914-.3-1.413-.3H11.4l.526.298-1.72-2.377c-.399-.55-1.603-.319-2.19-.319H1.563c-.786 0-.786 1.204 0 1.204h8.102l-.526-.298 1.306 1.805c.295.408.525.89 1.09.89h11.083c.244 0 .164.394.164.553V19.11c0 .776 1.218.776 1.218 0zm-1.793 1.685H1.39c-.338 0-.168-1.539-.168-1.753V4.73c0-.163-.14-1.443.122-1.469.774-.077.781-1.281 0-1.203-1.507.15-1.34 1.513-1.34 2.605v15.105C.006 20.738.008 22 1.38 22h20.828c.785 0 .785-1.204 0-1.204zM1.17 10.023h21.614c.785 0 .785-1.204 0-1.204H1.172c-.786 0-.786 1.204 0 1.204z"/></svg>