<svg xmlns="http://www.w3.org/2000/svg" width="24" height="24" viewBox="0 0 24 24"><title>ic_im_evaluate</title><path fill="#000" fill-rule="nonzero" d="M21.446 9.576a2.554 2.554 0 0 0-2.003-.956h-4.47a8.239 8.239 0 0 0 .463-2.11c.09-1.1-.082-2.077-.495-2.825-.508-.92-1.374-1.495-2.503-1.66-.511-.076-.95.022-1.307.288-.72.54-.852 1.565-1.005 2.752-.123.95-.261 2.025-.727 2.796-.311.515-.916 1.2-2.576 1.2H5.091C3.938 9.06 3 9.986 3 11.125v7.809C3 20.073 3.938 21 5.091 21h12.616c.575 0 1.139-.194 1.589-.547.45-.352.77-.85.9-1.403l1.736-7.33a2.487 2.487 0 0 0-.486-2.144zM4.394 18.935v-7.81c0-.379.313-.687.697-.687h1.47v9.185H5.09a.694.694 0 0 1-.697-.688zm16.18-7.53l-1.735 7.332a1.154 1.154 0 0 1-1.132.886H7.955v-9.285c1.177-.222 2.063-.815 2.64-1.77.616-1.019.774-2.246.913-3.329.064-.49.123-.951.218-1.306.101-.38.206-.492.247-.522.046-.035.134-.043.26-.024.7.103 1.185.416 1.484.957.614 1.112.343 2.988-.242 4.266a.97.97 0 0 0 .07.939.993.993 0 0 0 .835.448h5.063c.357 0 .689.159.91.435.222.276.303.631.222.974z"/></svg>