<svg xmlns="http://www.w3.org/2000/svg" width="24" height="24" viewBox="0 0 24 24"><title>ic_im_document</title><path fill="#000" fill-rule="nonzero" d="M20.8 5h-8.507L8.847 2.15C8.627 2.075 8.48 2 8.333 2H3.2C1.953 2 1 2.975 1 4.25v16.5C1 22.025 1.953 23 3.2 23h17.6c1.247 0 2.2-.975 2.2-2.25V7.25C23 5.975 22.047 5 20.8 5zm.733 15.75c0 .45-.293.75-.733.75H3.2c-.44 0-.733-.3-.733-.75V11h19.066v9.75zm0-11.25H2.467V4.25c0-.45.293-.75.733-.75h4.84l3.447 2.85c.22.075.366.15.513.15h8.8c.44 0 .733.3.733.75V9.5z"/></svg>